HIERARCHY
ROOT Hips
{
	OFFSET -0.001795 -0.223333 0.028219
	CHANNELS 6 Xposition Yposition Zposition Zrotation Yrotation Xrotation 
	JOINT LeftUpLeg
	{
		OFFSET 0.069520 -0.091406 -0.006815
		CHANNELS 3 Zrotation Yrotation Xrotation
		JOINT LeftLeg
		{
			OFFSET 0.034277 -0.375199 -0.004496
			CHANNELS 3 Zrotation Yrotation Xrotation
			JOINT LeftFoot
			{
				OFFSET -0.013596 -0.397961 -0.043693
				CHANNELS 3 Zrotation Yrotation Xrotation
				JOINT LeftToe
				{
					OFFSET 0.026358 -0.055791 0.119288
					CHANNELS 3 Zrotation Yrotation Xrotation
					End Site
					{
						OFFSET 0.000000 0.000000 0.000000
					}
				}
			}
		}
	}
	JOINT RightUpLeg
	{
		OFFSET -0.067670 -0.090522 -0.004320
		CHANNELS 3 Zrotation Yrotation Xrotation
		JOINT RightLeg
		{
			OFFSET -0.038290 -0.382569 -0.008850
			CHANNELS 3 Zrotation Yrotation Xrotation
			JOINT RightFoot
			{
				OFFSET 0.015774 -0.398415 -0.042312
				CHANNELS 3 Zrotation Yrotation Xrotation
				JOINT RightToe
				{
					OFFSET -0.025372 -0.048144 0.123348
					CHANNELS 3 Zrotation Yrotation Xrotation
					End Site
					{
						OFFSET 0.000000 0.000000 0.000000
					}
				}
			}
		}
	}
	JOINT Spine
	{
		OFFSET -0.002533 0.108963 -0.026696
		CHANNELS 3 Zrotation Yrotation Xrotation
		JOINT Spine1
		{
			OFFSET 0.005487 0.135180 0.001092
			CHANNELS 3 Zrotation Yrotation Xrotation
			JOINT Spine2
			{
				OFFSET 0.001457 0.052922 0.025425
				CHANNELS 3 Zrotation Yrotation Xrotation
				JOINT Neck
				{
					OFFSET -0.002778 0.213870 -0.042857
					CHANNELS 3 Zrotation Yrotation Xrotation
					JOINT Head
					{
						OFFSET 0.005152 0.064970 0.051349
						CHANNELS 3 Zrotation Yrotation Xrotation
						End Site
						{
							OFFSET 0.000000 0.000000 0.000000
						}
					}
				}
				JOINT LeftShoulder
				{
					OFFSET 0.078845 0.121749 -0.034090
					CHANNELS 3 Zrotation Yrotation Xrotation
					JOINT LeftArm
					{
						OFFSET 0.090977 0.030469 -0.008868
						CHANNELS 3 Zrotation Yrotation Xrotation
						JOINT LeftForeArm
						{
							OFFSET 0.259612 -0.012772 -0.027456
							CHANNELS 3 Zrotation Yrotation Xrotation
							JOINT LeftHand
							{
								OFFSET 0.249234 0.008986 -0.001171
								CHANNELS 3 Zrotation Yrotation Xrotation
								End Site
								{
									OFFSET 0.000000 0.000000 0.000000
								}
							}
						}
					}
				}
				JOINT RightShoulder
				{
					OFFSET -0.081759 0.118833 -0.038615
					CHANNELS 3 Zrotation Yrotation Xrotation
					JOINT RightArm
					{
						OFFSET -0.096012 0.032551 -0.009143
						CHANNELS 3 Zrotation Yrotation Xrotation
						JOINT RightForeArm
						{
							OFFSET -0.253742 -0.013329 -0.021401
							CHANNELS 3 Zrotation Yrotation Xrotation
							JOINT RightHand
							{
								OFFSET -0.255298 0.007772 -0.005559
								CHANNELS 3 Zrotation Yrotation Xrotation
								End Site
								{
									OFFSET 0.000000 0.000000 0.000000
								}
							}
						}
					}
				}
			}
		}
	}
}
MOTION
Frames: 6
Frame Time: 0.050000
0.000000 0.948504 0.000000 -12.355049 -14.463643 17.495860 9.969871 0.596554 -22.954581 2.360126 -0.590563 10.896152 -3.697559 -8.107912 -0.324035 0.000000 0.000000 0.000000 2.349117 2.327198 -18.336052 3.585395 -0.140884 4.151655 1.986101 -2.924110 11.082647 0.000000 0.000000 0.000000 -6.268999 1.213114 18.613645 -8.215506 4.199154 2.944045 -3.336095 1.991605 7.998583 -1.052589 1.239385 -14.296130 0.000000 0.000000 0.000000 -19.537170 -17.594091 9.589114 -18.512467 -22.913437 -0.199423 20.270648 -24.506973 -3.101484 0.000000 0.000000 0.000000 17.437159 7.964563 1.707976 47.273677 -1.827729 -5.054701 15.438788 45.193439 7.212382 0.000000 0.000000 0.000000 
0.002216 0.948597 -0.001995 -13.446409 -16.312880 17.949023 12.176494 1.203503 -22.205458 0.059891 -0.048912 9.539999 -3.328582 -7.129876 0.029798 0.000000 0.000000 0.000000 3.930606 2.522443 -18.481520 2.524677 -0.012399 4.439679 2.631015 -2.464577 11.892105 0.000000 0.000000 0.000000 -7.419744 1.647125 19.332217 -6.903684 3.411482 1.435053 -4.392568 4.796028 9.030673 -0.954578 1.400312 -15.272077 0.000000 0.000000 0.000000 -19.753932 -16.417193 8.434668 -19.434335 -23.264749 -0.117291 23.077333 -26.379482 -3.989070 0.000000 0.000000 0.000000 16.868202 5.625762 1.033802 48.381226 1.717752 -4.091073 13.848651 43.700064 6.659000 0.000000 0.000000 0.000000 
0.003841 0.947895 -0.003417 -13.009511 -14.721910 18.105619 11.811669 1.108707 -23.641576 1.095920 -0.298926 10.527823 -3.791009 -8.046425 0.239678 0.000000 0.000000 0.000000 4.099378 2.608208 -18.988576 3.279851 -0.093309 4.582485 1.712313 -3.645819 11.195262 0.000000 0.000000 0.000000 -5.838857 1.180072 19.412974 -6.030398 2.956047 1.301981 -6.489314 5.332638 8.810806 -0.834929 1.331519 -12.333127 0.000000 0.000000 0.000000 -22.094715 -18.265368 9.353041 -16.248061 -23.955193 -0.274749 21.920130 -25.983085 -3.755102 0.000000 0.000000 0.000000 17.960786 5.944229 1.554268 48.123991 0.001541 -4.750336 16.890115 45.600805 8.467968 0.000000 0.000000 0.000000 
0.004877 0.946471 -0.004167 -13.645288 -15.423558 18.564620 12.655494 1.439591 -24.285802 0.392115 -0.109942 11.880099 -4.260113 -9.496903 -0.852091 0.000000 0.000000 0.000000 4.143737 2.587631 -18.820800 3.557713 -0.141957 3.333768 1.688184 -4.381014 12.243108 0.000000 0.000000 0.000000 -6.027292 1.235442 18.964011 -6.583316 3.316976 2.140511 -6.662211 6.121629 8.776414 -0.293409 1.031831 -12.296660 0.000000 0.000000 0.000000 -21.812004 -18.515157 9.256626 -16.268697 -24.289840 -0.189796 22.361879 -25.335452 -3.782415 0.000000 0.000000 0.000000 19.217121 5.869900 1.623626 47.971896 0.214624 -4.694699 13.694902 47.168733 7.539993 0.000000 0.000000 0.000000 
0.005612 0.945558 -0.004244 -13.365144 -15.326877 18.469226 12.445181 1.462162 -25.038169 0.374951 -0.088954 13.146242 -3.573089 -8.147902 -1.119085 0.000000 0.000000 0.000000 4.182326 2.579712 -18.765795 3.118715 -0.107606 3.290615 1.906789 -3.610104 11.618235 0.000000 0.000000 0.000000 -6.206632 1.329769 19.661251 -6.134119 3.103561 2.241625 -7.093998 6.812780 8.616683 0.765938 0.441619 -12.418637 0.000000 0.000000 0.000000 -22.083143 -19.092252 9.326343 -17.042601 -24.579733 -0.027969 24.399317 -25.658932 -4.314580 0.000000 0.000000 0.000000 20.063177 5.688051 1.762700 48.206693 0.481736 -4.674221 14.076653 48.718156 8.172322 0.000000 0.000000 0.000000 
0.006407 0.944422 -0.003532 -13.201869 -14.883851 18.372002 12.303760 1.381505 -25.149466 0.135914 -0.033026 13.665906 -3.120103 -7.236353 -1.220935 0.000000 0.000000 0.000000 4.381763 2.594648 -18.802422 3.299923 -0.118196 3.637311 1.767852 -3.195979 10.537135 0.000000 0.000000 0.000000 -6.249576 1.370729 20.289347 -5.713550 2.856023 1.906506 -6.980004 7.016264 8.777922 1.717639 -0.175345 -11.942544 0.000000 0.000000 0.000000 -21.576747 -19.597632 9.435890 -18.293410 -24.692119 0.140446 25.183032 -26.292254 -4.622914 0.000000 0.000000 0.000000 21.183586 5.823874 1.963623 48.083984 1.506994 -4.332354 12.464323 48.680973 7.549615 0.000000 0.000000 0.000000 
